# File created by Blade
# Date/Time:  Wed Jan 21 17:34:04 2015
# Frame Rate: 120.000 fps
#------------------------------------------------------
:FULLY-SPECIFIED
:DEGREES
1372
root 21.519107 9.228049 -16.346176 -202.365503 -7.218691 -176.769555
Spine 63.312966 9.980825 -1.043636
Head -11.782317 -10.489792 10.644222
LeftShoulder 8.260549 -25.404054 -0.541674
LeftArm 2.798787 12.104996 -61.510238
LeftForeArm -8.685108 0.000000 -3.246360
LeftHand 3.538470 0.000000 -2.603771
LeftHandThumb1 -26.253704 0.000000 33.147579
RightShoulder 2.435873 0.991759 -7.190944
RightArm 42.221781 19.101969 54.002568
RightForeArm -14.301271 -0.000000 21.169182
RightHand 5.705246 0.000000 -46.064105
RightHandThumb1 -24.326973 -0.000000 -32.862282
LeftUpLeg -83.892503 5.289578 11.410507
LeftLeg 156.240043 -0.000000 -0.000000
LeftFoot -47.350512 9.184680 -9.943479
LeftToeBase 10.577561 -0.000000 -0.000000
RightUpLeg -72.585220 -11.562441 -20.045693
RightLeg 159.164045 -0.000000 -0.000000
RightFoot -39.868243 -5.901943 18.927437
RightToeBase 8.401802 -0.000000 -0.000000
1373
root 21.550933 9.327124 -16.341568 -202.094040 -7.123985 -177.217403
Spine 63.198645 9.761067 -1.677474
Head -12.130377 -9.749876 10.517122
LeftShoulder 8.784132 -25.670670 -1.314452
LeftArm 3.022543 12.693502 -60.588889
LeftForeArm -8.832299 0.000000 -4.449290
LeftHand 2.509136 -0.000000 -3.142545
LeftHandThumb1 -26.253704 0.000000 33.147579
RightShoulder 2.936767 1.884721 -7.808678
RightArm 43.943936 19.721663 54.254213
RightForeArm -13.996198 -0.000000 20.796541
RightHand 5.542386 -0.000000 -45.341704
RightHandThumb1 -24.326973 -0.000000 -32.862282
LeftUpLeg -83.152579 5.554026 11.255738
LeftLeg 155.779701 -0.000000 -0.000000
LeftFoot -47.908399 9.082350 -9.788052
LeftToeBase 10.622169 -0.000000 -0.000000
RightUpLeg -72.671206 -11.598059 -19.902322
RightLeg 158.993908 -0.000000 -0.000000
RightFoot -40.136872 -6.280284 18.852641
RightToeBase 8.288536 -0.000000 -0.000000
1374
root 21.581173 9.444304 -16.330511 -201.752927 -7.057710 -177.621559
Spine 62.996697 9.529315 -2.294355
Head -12.466248 -9.083062 10.439969
LeftShoulder 9.384106 -26.026628 -2.113559
LeftArm 3.116449 13.065927 -59.674306
LeftForeArm -8.533115 -0.000000 -5.404853
LeftHand 1.356087 -0.000000 -3.734460
LeftHandThumb1 -26.253704 0.000000 33.147579
RightShoulder 3.434050 2.814744 -8.376509
RightArm 45.417423 20.131561 54.319769
RightForeArm -13.736786 -0.000000 20.668500
RightHand 5.754575 -0.000000 -44.689165
RightHandThumb1 -24.326973 -0.000000 -32.862282
LeftUpLeg -82.524741 5.752454 11.002746
LeftLeg 155.275643 -0.000000 -0.000000
LeftFoot -48.419864 9.135154 -9.711210
LeftToeBase 10.817094 -0.000000 -0.000000
RightUpLeg -72.759947 -11.755129 -19.651905
RightLeg 158.764982 -0.000000 -0.000000
RightFoot -40.438904 -6.620825 18.887564
RightToeBase 8.139273 -0.000000 -0.000000
1375
root 21.609355 9.576175 -16.308810 -201.281666 -7.057920 -178.047024
Spine 62.664058 9.256882 -3.021994
Head -12.770400 -8.345462 10.395099
LeftShoulder 9.856601 -26.415834 -2.792688
LeftArm 3.142501 13.463076 -58.813506
LeftForeArm -8.364908 0.000000 -5.901621
LeftHand 0.024234 -0.000000 -4.154122
LeftHandThumb1 -26.253704 0.000000 33.147579
RightShoulder 3.842332 3.637341 -8.954695
RightArm 47.074468 20.516737 54.677841
RightForeArm -13.734737 -0.000000 20.622674
RightHand 5.674029 -0.000000 -44.145405
RightHandThumb1 -24.326973 -0.000000 -32.862282
LeftUpLeg -82.057487 5.894050 10.516981
LeftLeg 154.689954 -0.000000 -0.000000
LeftFoot -48.945633 9.330365 -9.847329
LeftToeBase 11.078030 -0.000000 -0.000000
RightUpLeg -73.000917 -12.072135 -19.287698
RightLeg 158.486180 -0.000000 -0.000000
RightFoot -40.780912 -7.243191 18.942868
RightToeBase 8.259598 -0.000000 -0.000000
1376
root 21.640153 9.724125 -16.284441 -200.757409 -7.031342 -178.420602
Spine 62.272133 9.027585 -3.639245
Head -13.073595 -7.685663 10.320893
LeftShoulder 10.262488 -26.770694 -3.325730
LeftArm 3.113054 13.832756 -58.130178
LeftForeArm -8.388115 -0.000000 -5.796899
LeftHand -1.463755 -0.000000 -3.904621
LeftHandThumb1 -26.253704 0.000000 33.147579
RightShoulder 4.148318 4.434444 -9.559648
RightArm 48.613302 20.668431 54.923278
RightForeArm -13.895383 -0.000000 20.727188
RightHand 5.486028 -0.000000 -43.707517
RightHandThumb1 -24.326973 -0.000000 -32.862282
LeftUpLeg -81.699061 6.044026 10.035112
LeftLeg 154.103059 -0.000000 -0.000000
LeftFoot -49.257095 9.673509 -9.991613
LeftToeBase 11.143077 -0.000000 -0.000000
RightUpLeg -73.308054 -12.259458 -18.765663
RightLeg 158.153183 -0.000000 -0.000000
RightFoot -41.030916 -7.856912 19.254718
RightToeBase 8.187881 -0.000000 -0.000000
1377
root 21.678037 9.884600 -16.250253 -200.156024 -6.962699 -178.634153
Spine 61.741498 8.678134 -4.198218
Head -13.274900 -6.896132 10.135700
LeftShoulder 10.299836 -27.036233 -3.587128
LeftArm 3.150472 14.175412 -57.710606
LeftForeArm -8.223089 -0.000000 -5.152313
LeftHand -2.749566 0.000000 -3.190205
LeftHandThumb1 -26.253704 0.000000 33.147579
RightShoulder 4.576979 5.233606 -10.192328
RightArm 49.911421 20.615899 54.942145
RightForeArm -13.776694 -0.000000 21.153948
RightHand 5.385917 -0.000000 -43.248312
RightHandThumb1 -24.326973 -0.000000 -32.862282
LeftUpLeg -81.500075 6.146297 9.686815
LeftLeg 153.493596 -0.000000 -0.000000
LeftFoot -49.552320 10.065347 -10.221238
LeftToeBase 11.348222 -0.000000 -0.000000
RightUpLeg -73.685171 -12.521832 -17.978049
RightLeg 157.742024 -0.000000 -0.000000
RightFoot -41.303378 -8.569216 19.455607
RightToeBase 8.229195 -0.000000 -0.000000
